<svg version="1.1" id="Layer_1" xmlns="http://www.w3.org/2000/svg" xmlns:xlink="http://www.w3.org/1999/xlink" x="0px" y="0px"
	 width="100%" viewBox="0 0 400 400" enable-background="new 0 0 400 400" xml:space="preserve">
<path fill="#000000" opacity="1.000000" stroke="none" 
	d="
M115.375000,401.000000 
	C116.316162,393.831512 117.432968,386.618011 119.036438,379.514374 
	C119.786591,376.191071 118.638504,374.981049 115.699127,374.227600 
	C107.762550,372.193207 100.408707,369.162170 94.308716,363.272461 
	C91.132240,360.205475 89.422089,356.969208 89.967667,352.763000 
	C90.463081,348.943512 88.553619,344.995392 90.853439,341.167603 
	C91.213470,340.568359 89.102997,338.152161 87.797394,336.939453 
	C80.024223,329.719360 78.488930,320.008148 77.036385,310.286804 
	C76.614540,307.463623 78.356697,306.781525 80.801643,307.512604 
	C85.498131,308.916962 90.311310,308.936157 95.145805,308.837982 
	C105.196938,308.633850 112.504486,301.206116 112.699326,291.263000 
	C112.875221,282.287445 113.026802,273.292816 113.748932,264.351807 
	C114.451782,255.649506 111.068588,247.876419 108.348167,240.182190 
	C101.936157,222.046951 105.083122,204.559555 111.164612,187.510040 
	C115.719246,174.741104 119.735435,161.992538 121.093674,148.520554 
	C123.123581,128.386383 132.150528,111.214935 142.722702,94.453720 
	C148.937424,84.600838 155.842667,75.681480 165.477036,69.045135 
	C174.117950,63.093109 183.639709,62.141747 193.534897,64.617645 
	C198.368103,65.826973 203.400131,67.491295 207.058685,70.830833 
	C217.076965,79.975525 231.127365,79.797737 242.044525,86.659943 
	C250.068451,91.703552 256.196014,98.728645 260.644043,106.876183 
	C266.638824,117.856819 270.348602,129.822052 273.018158,142.034134 
	C274.254028,147.687805 274.785400,153.493729 275.686707,159.222672 
	C277.278900,169.343246 282.671722,178.224243 285.152863,188.045639 
	C286.976898,195.266144 290.246674,202.449677 289.770905,209.832108 
	C289.308594,217.006027 288.139313,224.349396 285.703857,231.296448 
	C283.808868,236.701782 283.233002,242.249924 283.300507,247.973846 
	C283.476807,262.919312 282.867584,277.888611 286.108612,292.653992 
	C287.889954,300.769470 290.208923,302.596252 298.486664,301.587860 
	C303.121796,301.023193 304.314209,302.278809 303.320343,306.993286 
	C302.567627,310.563934 301.755615,314.195618 299.295654,317.056213 
	C297.572205,319.060364 298.154541,320.388000 299.770905,322.139160 
	C303.342346,326.008362 307.873901,328.529480 312.209229,331.270355 
	C315.992737,333.662384 316.688873,335.646393 313.860992,339.594360 
	C310.024841,344.949890 305.334625,349.283691 300.539978,353.657562 
	C296.198517,357.618042 296.402435,358.822388 301.477783,361.400879 
	C306.071655,363.734772 303.296692,366.248779 301.459137,367.951019 
	C295.602295,373.376526 288.349457,374.775574 280.601898,374.037781 
	C278.466980,373.834534 276.357605,373.362976 273.505920,372.894470 
	C274.168304,382.360809 275.886444,391.334198 277.861023,400.646179 
	C277.250000,401.000000 276.500000,401.000000 275.276855,400.661072 
	C272.468597,385.214325 270.526306,370.028564 266.364502,355.326752 
	C264.079315,355.406189 263.366547,356.893738 262.656708,358.096710 
	C260.269226,362.142944 256.580414,363.259918 252.195160,363.398132 
	C246.256241,363.585358 245.242050,365.071533 246.803116,370.863556 
	C249.512238,380.915283 252.265350,390.955170 255.000000,401.000000 
	C253.933334,401.000000 252.866653,401.000000 251.276428,400.653687 
	C248.333572,393.908630 245.298111,387.807678 241.821396,381.924164 
	C238.049255,375.540649 233.512375,369.562042 234.246582,361.366760 
	C234.529755,358.206116 233.494980,354.929901 231.795380,351.916779 
	C230.068634,348.855591 231.365601,346.890045 234.944763,346.439667 
	C235.972748,346.310303 237.353287,347.002563 238.008072,345.590515 
	C237.424957,343.716736 236.866882,341.923401 236.244568,339.923615 
	C238.554306,339.854889 239.123627,342.427979 241.705948,341.720947 
	C240.395874,335.677094 238.950394,329.633026 237.797470,323.533691 
	C236.316574,315.699219 235.956299,315.533630 228.242477,317.093384 
	C223.754349,318.000824 219.342911,319.844574 214.541306,318.963318 
	C220.797882,315.715332 227.753494,315.104523 234.948517,314.068756 
	C233.912048,311.339478 233.189713,309.324921 232.384445,307.344086 
	C231.269150,304.600616 229.453583,303.016510 226.228653,303.477386 
	C218.994904,304.511200 211.671585,305.079437 204.531296,306.549194 
	C199.772797,307.528687 194.676422,308.095612 190.887955,311.170105 
	C181.771561,307.462952 172.371353,305.910522 162.752640,305.422699 
	C154.554688,305.006927 152.000519,307.285858 150.823303,316.150360 
	C155.228027,317.453308 160.042206,317.830750 164.038391,320.420410 
	C160.690567,320.903656 157.679443,319.900116 154.675201,319.009857 
	C152.962204,318.502258 151.470886,318.220520 150.070282,319.625732 
	C145.151459,324.560822 144.728561,336.292755 150.743423,339.201508 
	C160.781860,344.056061 158.957443,352.876282 160.301834,360.748932 
	C161.539383,367.996033 158.972321,374.321167 155.042114,380.425903 
	C150.908096,386.847229 147.243805,393.604736 145.000000,401.000000 
	C142.629440,401.000000 140.258896,401.000000 137.583038,400.670044 
	C141.863388,388.760742 144.904953,376.708221 148.034348,364.693665 
	C148.946671,361.191040 145.876541,360.318817 143.379105,359.481201 
	C142.514420,359.191193 141.470703,359.435059 140.020004,359.435059 
	C142.949280,356.562012 145.168762,357.338379 147.605225,359.045441 
	C150.134796,360.817657 152.968277,362.112335 155.695694,359.363068 
	C158.324387,356.713348 156.521820,354.299103 155.212433,351.718262 
	C154.200363,351.894287 153.357056,351.917480 152.604965,352.191254 
	C146.415955,354.443848 140.204422,355.961792 133.456711,356.018951 
	C129.803284,356.049896 126.065102,357.848877 125.182121,363.005585 
	C123.007462,375.705902 119.156113,388.096436 118.000000,401.000000 
	C117.250000,401.000000 116.500000,401.000000 115.375000,401.000000 
M228.931870,300.797943 
	C231.014359,294.373291 231.051346,287.398804 234.827927,281.318176 
	C229.113708,278.201813 223.392426,277.228210 217.704605,276.235626 
	C214.554947,275.686005 213.066574,274.206360 212.204208,270.932098 
	C210.510391,264.500793 211.494080,257.803314 209.592270,251.500641 
	C233.839432,237.883438 233.858047,237.896286 250.648956,213.556396 
	C251.857666,211.804276 254.599258,211.147614 254.530655,208.603317 
	C254.348541,201.850021 257.130280,195.613312 257.792694,188.996796 
	C258.048645,186.440002 257.659363,184.598495 255.981567,182.668518 
	C250.797623,176.705444 245.033600,170.596786 241.798035,163.836914 
	C238.161987,156.240341 233.098801,154.315567 226.176407,153.229843 
	C221.714813,152.530075 217.335083,151.802536 212.855789,153.163879 
	C211.736969,153.503906 210.266998,154.125900 208.879944,152.289825 
	C212.233490,148.568085 216.668472,148.926865 221.055893,148.643860 
	C225.728851,148.342438 230.006683,150.872757 235.285721,150.444611 
	C233.485321,142.305099 231.442642,134.630646 230.142441,126.832413 
	C228.108749,114.634880 222.701462,106.462860 208.960541,106.894989 
	C208.487061,106.909889 208.012314,106.587006 207.524551,106.489449 
	C195.888046,104.161896 184.240829,102.762527 172.413132,105.301323 
	C168.481506,106.145248 166.434845,107.794479 166.138016,112.201637 
	C165.513809,121.469765 164.286789,130.697845 163.277481,139.939133 
	C162.981323,142.650879 161.331696,145.327545 163.094437,148.190186 
	C169.445816,148.144684 176.170715,146.285522 181.613434,151.432663 
	C180.367416,153.618912 179.023666,152.573608 177.797806,152.453979 
	C173.166183,152.001984 168.550919,151.348358 163.881943,152.282990 
	C160.167618,153.026505 159.745163,156.151993 159.644730,158.792999 
	C159.526489,161.902252 162.471313,160.695221 164.251251,160.918777 
	C165.732986,161.104874 167.278091,160.938232 168.719864,161.262482 
	C173.048492,162.236008 177.453094,163.175156 179.899567,167.042114 
	C179.690536,169.157883 177.700333,167.965027 177.284760,169.198425 
	C182.462677,175.299286 182.641464,175.664886 182.442612,179.887604 
	C179.380219,180.320679 178.439865,176.626160 175.817856,176.238358 
	C173.710983,183.703644 170.558640,186.292297 164.866531,185.364120 
	C159.189972,184.438477 157.596451,181.607162 157.837448,172.571472 
	C155.099915,172.678467 153.197357,174.339783 151.433838,175.996643 
	C148.795258,178.475616 153.479156,180.799133 151.405762,183.844193 
	C147.489044,183.772964 146.371735,187.561615 144.692047,190.462128 
	C141.168533,196.546600 137.870605,203.077621 139.856033,210.261765 
	C142.041138,218.168503 146.261490,225.137650 152.038208,231.180893 
	C160.097809,239.612320 169.918335,245.429047 180.124542,250.624298 
	C178.766800,257.363892 179.387558,263.852936 179.413773,270.305115 
	C179.429962,274.283325 178.134903,276.536621 174.021378,277.244843 
	C168.925293,278.122284 164.150024,280.169250 159.253143,281.786530 
	C155.066269,283.169342 154.057678,285.722626 154.306808,289.710449 
	C154.497742,292.766327 156.974213,295.756653 153.548798,299.096436 
	C151.983017,300.623077 154.367737,302.740204 157.119171,302.721588 
	C166.649963,302.657074 175.928131,304.458221 185.180435,306.558929 
	C187.539368,307.094543 189.953964,307.770050 192.556351,307.026367 
	C204.247696,303.685303 216.177475,301.694763 228.931870,300.797943 
M236.746994,300.703278 
	C237.190384,294.957123 239.478973,289.345673 238.425476,283.009064 
	C231.063538,290.908936 230.433212,301.191895 236.731247,309.343323 
	C236.731247,306.513214 236.731247,304.055847 236.746994,300.703278 
M143.042969,396.248718 
	C146.674728,389.829865 150.306473,383.411011 154.097351,376.710876 
	C151.078857,376.123627 147.820023,375.500275 147.333344,378.092133 
	C146.175079,384.260376 142.301529,389.674988 143.042969,396.248718 
M245.857971,377.421844 
	C245.311630,374.519775 244.862686,371.489777 240.269760,373.097137 
	C241.847473,376.814240 243.507950,379.911407 246.352798,382.874237 
	C246.894913,380.857849 246.493042,379.481110 245.857971,377.421844 
z"/>
<path fill="#000000" opacity="1.000000" stroke="none" 
	d="
M185.776993,321.642517 
	C184.516800,326.396942 181.839111,327.172546 177.784302,325.709656 
	C175.082718,324.734924 171.948578,324.869476 169.273941,321.985382 
	C173.974457,321.531830 177.564453,323.691803 181.564941,324.413239 
	C183.711792,320.625885 185.789886,316.959808 188.330933,312.477051 
	C189.682220,316.819977 186.042374,318.517334 185.776993,321.642517 
z"/>
<path fill="#000000" opacity="1.000000" stroke="none" 
	d="
M201.293076,322.171356 
	C203.670242,321.491150 205.564819,320.082428 208.664642,321.548157 
	C203.885559,324.301178 199.387863,325.336365 194.769547,325.952301 
	C194.593857,325.414032 194.418167,324.875732 194.242477,324.337433 
	C196.470367,323.666382 198.698257,322.995331 201.293076,322.171356 
z"/>
<path fill="#000000" opacity="1.000000" stroke="none" 
	d="
M211.785950,165.564392 
	C220.829453,161.010223 229.641388,160.867050 238.563843,164.752792 
	C241.504608,166.033508 243.157074,167.494629 239.744812,169.898636 
	C241.268616,173.423340 247.348038,173.881851 246.237091,178.526840 
	C245.518021,181.533478 243.422546,184.875305 238.440735,185.730530 
	C240.939728,179.451981 240.398422,174.757217 232.890305,173.862549 
	C233.273361,182.260132 231.404953,185.466248 225.809311,186.197571 
	C219.686310,186.997803 216.637573,184.187302 215.277649,176.389160 
	C212.398422,176.473373 211.625824,180.953781 207.292084,179.681351 
	C208.639801,174.244263 211.864258,170.550400 217.530945,167.598862 
	C213.974091,167.385757 212.166031,170.411591 209.490295,169.148422 
	C208.573776,167.033340 210.450043,166.643829 211.785950,165.564392 
z"/>
<path fill="#000000" opacity="1.000000" stroke="none" 
	d="
M183.348419,223.031845 
	C180.865570,221.731216 178.174057,221.430557 176.727356,218.356842 
	C188.672409,213.810638 200.268448,213.357788 211.958023,218.696457 
	C208.202957,224.414169 194.904800,226.459290 183.348419,223.031845 
z"/>
</svg>